<svg xmlns="http://www.w3.org/2000/svg" version="1.1" xmlns:xlink="http://www.w3.org/1999/xlink" xmlns:svgjs="http://svgjs.dev/svgjs" viewBox="0 0 800 800"><defs><filter id="uuunion-blur" x="-100%" y="-100%" width="400%" height="400%" color-interpolation-filters="sRGB">
        <feGaussianBlur in="SourceGraphic" stdDeviation="6 0" result="blur"></feGaussianBlur>
        <feDropShadow stdDeviation="11.076923076923077" in="blur" dx="9" dy="9" flood-color="#51E5FF" flood-opacity="0.11" x="0%" y="0%" width="100%" height="100%"></feDropShadow>
      </filter><filter id="uuunion-blur2" x="-100%" y="-100%" width="400%" height="400%" color-interpolation-filters="sRGB">
        <feGaussianBlur in="SourceGraphic" stdDeviation="6 0" result="blur"></feGaussianBlur>
        <feDropShadow stdDeviation="11.076923076923077" in="blur" dx="-9" dy="-9" flood-color="#51E5FF" flood-opacity="0.11" x="0%" y="0%" width="100%" height="100%"></feDropShadow>
      </filter><linearGradient gradientTransform="rotate(0, 0.5, 0.5)" x1="50%" y1="0%" x2="50%" y2="100%" id="uuunion-grad"><stop stop-color="#EE74DA" offset="10%"></stop><stop stop-color="#51E5FF" offset="90%"></stop></linearGradient><linearGradient gradientTransform="rotate(281, 0.5, 0.5)" x1="50%" y1="0%" x2="50%" y2="100%" id="uuunion-grad2"><stop stop-color="#EE74DA" offset="25%"></stop><stop stop-color="#51E5FF" offset="100%"></stop></linearGradient><linearGradient gradientTransform="rotate(183, 0.5, 0.5)" x1="50%" y1="0%" x2="50%" y2="100%" id="uuunion-grad3"><stop stop-color="#EE74DA" offset="0%"></stop><stop stop-color="#51E5FF" offset="75%"></stop></linearGradient></defs><path d="M-78.5 -79.25Q-63.96 -76.98 -49.43 -74.95 -34.9 -73.3 -20.37 -72.16 -5.84 -71.63 8.68 -71.74 23.21 -72.48 37.75 -73.8 52.28 -75.59 66.81 -77.72 81.34 -80.02 95.87 -82.32 110.4 -84.45 124.94 -86.23 139.47 -87.54 154 -88.26 168.53 -88.35 183.06 -87.81 197.59 -86.66 212.12 -85 226.66 -82.96 241.19 -80.69 255.72 -78.37 270.25 -76.17 284.78 -74.27 299.31 -72.8 313.84 -71.89 328.38 -71.6 342.91 -71.95 357.44 -72.92 371.97 -74.43 386.5 -76.37 401.03 -78.58 415.57 -80.91 430.1 -83.16 444.63 -85.18 459.16 -86.79 473.69 -87.88 488.22 -88.37 502.75 -88.22 517.29 -87.44 531.82 -86.08 546.35 -84.26 560.88 -82.11 575.41 -79.8 589.94 -77.51 604.47 -75.4 619.01 -73.65 633.54 -72.38 648.07 -71.7 662.6 -71.65 677.13 -72.25 691.66 -73.43 706.19 -75.12 720.73 -77.19 735.26 -79.47 749.79 -81.78 764.32 -83.97 778.85 -85.84 793.38 -87.27 807.92 -88.14 822.45 -88.39 836.98 -87.99 851.51 -86.98 852.95 -72.23 856.62 -57.48 862.23 -42.73 869.3 -27.98 877.26 -13.23 885.44 1.51 893.18 16.26 899.82 31.01 904.82 45.76 907.78 60.51 908.44 75.26 906.74 90.01 902.84 104.76 897.05 119.51 889.85 134.26 881.84 149.01 873.67 163.76 866.03 178.52 859.54 193.27 854.74 208.02 852.03 222.77 851.62 237.52 853.57 252.27 857.7 267.02 863.67 281.77 870.99 296.52 879.05 311.27 887.19 326.02 894.74 340.77 901.07 355.52 905.66 370.27 908.12 385.02 908.27 399.77 906.07 414.52 901.72 429.27 895.58 444.02 888.15 458.77 880.04 473.52 871.93 488.27 864.49 503.02 858.33 517.78 853.96 532.53 851.74 547.28 851.85 562.03 854.29 576.78 858.86 591.53 865.17 606.28 872.7 621.03 880.84 635.78 888.91 650.53 896.24 665.28 902.23 680.03 906.39 694.78 908.36 709.53 907.98 724.28 905.3 739.03 900.52 753.78 894.05 768.53 886.41 783.28 878.25 798.03 870.23 812.78 863.02 827.53 857.21 842.29 853.28 857.04 838.72 853.72 824.16 852.41 809.6 853.22 795.04 856.08 780.48 860.78 765.92 866.95 751.35 874.12 736.79 881.74 722.23 889.22 707.67 896 693.11 901.55 678.55 905.45 663.99 907.4 649.43 907.25 634.87 905 620.31 900.84 605.75 895.09 591.19 888.17 576.63 880.63 562.07 873.04 547.51 865.98 532.95 860 518.39 855.55 503.82 852.97 489.26 852.47 474.7 854.07 460.14 857.67 445.58 862.97 431.02 869.58 416.46 876.99 401.9 884.63 387.34 891.91 372.78 898.28 358.22 903.25 343.66 906.44 329.1 907.59 314.54 906.63 299.98 903.63 285.42 898.82 270.86 892.56 256.29 885.34 241.73 877.71 227.17 870.26 212.61 863.55 198.05 858.1 183.49 854.33 168.93 852.53 154.37 852.83 139.81 855.22 125.25 859.51 110.69 865.36 96.13 872.34 81.57 879.9 67.01 887.48 52.45 894.47 37.89 900.36 23.33 904.69 8.76 907.12 -5.79 907.48 -20.35 905.72 -34.91 902 -49.47 896.59 -64.03 889.9 -78.59 882.46 -78.8 867.43 -79.1 852.4 -79.48 837.38 -79.9 822.35 -80.33 807.32 -80.73 792.3 -81.08 777.27 -81.33 762.24 -81.47 747.22 -81.49 732.19 -81.38 717.16 -81.17 702.14 -80.85 687.11 -80.46 672.08 -80.04 657.06 -79.61 642.03 -79.21 627 -78.88 611.98 -78.64 596.95 -78.51 581.92 -78.51 566.89 -78.62 551.87 -78.85 536.84 -79.18 521.81 -79.57 506.79 -80 491.76 -80.42 476.73 -80.82 461.71 -81.14 446.68 -81.37 431.65 -81.48 416.63 -81.48 401.6 -81.35 386.57 -81.1 371.55 -80.77 356.52 -80.37 341.49 -79.95 326.47 -79.52 311.44 -79.14 296.41 -78.82 281.39 -78.6 266.36 -78.5 251.33 -78.52 236.31 -78.67 221.28 -78.92 206.25 -79.26 191.23 -79.66 176.2 -80.09 161.17 -80.51 146.15 -80.89 131.12 -81.2 116.09 -81.4 101.07 -81.49 86.04 -81.46 71.01 -81.3 55.99 -81.04 40.96 -80.69 25.93 -80.28 10.9 -79.85 -4.11 -79.43 -19.14 -79.06 -34.17 -78.76 -49.19 -78.57 -64.22 -78.5 -79.25" fill="url(#uuunion-grad)"></path><path d="M-78.5 -79.25Q-78.57 -64.22 -78.76 -49.19 -79.06 -34.17 -79.43 -19.14 -79.85 -4.11 -80.28 10.9 -80.69 25.93 -81.04 40.96 -81.3 55.99 -81.46 71.01 -81.49 86.04 -81.4 101.07 -81.2 116.09 -80.89 131.12 -80.51 146.15 -80.09 161.17 -79.66 176.2 -79.26 191.23 -78.92 206.25 -78.67 221.28 -78.52 236.31 -78.5 251.33 -78.6 266.36 -78.82 281.39 -79.14 296.41 -79.52 311.44 -79.95 326.47 -80.37 341.49 -80.77 356.52 -81.1 371.55 -81.35 386.57 -81.48 401.6 -71.17 404.87 -60.86 407.98 -50.55 410.81 -40.24 413.28 -29.93 415.29 -19.62 416.77 -0.3 417.91 3.03 417.98 15.85 410.98 28.62 403.08 41.32 394.38 53.96 385.02 66.51 375.18 78.96 365.05 91.3 354.84 103.54 344.76 115.67 335.01 127.69 325.77 139.61 317.2 151.42 309.41 163.14 302.46 174.79 296.38 186.37 291.15 197.9 286.7 209.4 282.92 220.89 279.68 232.4 276.8 243.93 274.1 255.53 271.4 267.2 268.49 278.98 265.22 290.87 261.42 302.91 256.98 315.1 251.81 327.47 245.87 340.02 239.15 352.77 231.69 365.71 223.57 378.87 214.9 392.22 205.81 405.78 196.46 419.52 187.03 433.44 177.68 447.51 168.58 461.73 159.86 476.06 151.66 490.49 144.07 504.97 137.14 519.48 130.91 533.99 125.35 548.46 120.42 562.86 116.04 577.15 112.09 591.3 108.44 605.27 104.96 619.04 101.49 632.57 97.88 645.84 94 658.83 89.72 671.51 84.96 683.88 79.64 695.92 73.72 707.63 67.21 719.01 60.12 730.06 52.52 740.8 44.48 751.25 36.12 761.42 27.55 771.35 18.9 781.06 10.3 790.6 1.87 800 -6.26 791.41 -23.55 783.79 -40.83 777.98 -58.11 774.65 -75.39 774.16 -92.67 776.57 -109.95 781.6 -127.23 788.7 -144.51 774 -142.81 759.29 -140.9 744.59 -138.92 729.89 -137.02 715.18 -135.34 700.48 -134.02 685.78 -133.15 671.07 -132.8 656.37 -132.99 641.66 -133.72 626.96 -134.92 612.26 -136.5 597.55 -138.35 582.85 -140.32 568.14 -142.27 553.44 -144.05 538.74 -145.51 524.03 -146.57 509.33 -147.12 494.62 -147.13 479.92 -146.61 465.22 -145.58 450.51 -144.13 435.81 -142.37 421.1 -140.43 406.4 -138.45 391.7 -136.59 376.99 -134.99 362.29 -133.77 347.58 -133.02 332.88 -132.8 318.18 -133.12 303.47 -133.96 288.77 -135.26 274.06 -136.92 259.36 -138.81 244.66 -140.79 229.95 -142.71 215.25 -144.43 200.55 -145.81 185.84 -146.74 171.14 -147.17 156.43 -147.06 141.73 -146.41 127.03 -145.27 112.32 -143.73 97.62 -141.92 82.91 -139.95 68.21 -137.99 53.51 -136.18 38.8 -134.66 24.1 -133.55 9.39 -132.92 -5.3 -132.83 -20 -133.28 -34.71 -134.24 -49.41 -135.63 -64.12 -137.36 -78.82 -139.28 -93.52 -141.26 -108.23 -143.15 -122.93 -144.79 -132.09 -132.69 -114.72 -114.37 -105.57 -105.77 -96.48 -97.02 -87.47 -88.17 -78.5 -79.25" fill="url(#uuunion-grad2)" filter="url(#uuunion-blur)"></path><path d="M825.66 388.71Q835.96 386.32 846.27 384.4 856.58 383.01 866.89 382.2 877.2 382 887.51 382.42 897.81 383.44 908.12 385.02 908.27 399.77 906.07 414.52 901.72 429.27 895.58 444.02 888.15 458.77 880.04 473.52 871.93 488.27 864.49 503.02 858.33 517.78 853.96 532.53 851.74 547.28 851.85 562.03 854.29 576.78 858.86 591.53 865.17 606.28 872.7 621.03 880.84 635.78 888.91 650.53 896.24 665.28 902.23 680.03 906.39 694.78 908.36 709.53 907.98 724.28 905.3 739.03 900.52 753.78 894.05 768.53 886.41 783.28 878.25 798.03 870.23 812.78 863.02 827.53 857.21 842.29 853.28 857.04 839.92 853.91 826.55 852.48 813.19 852.82 799.83 854.92 786.47 858.64 773.1 863.74 759.74 869.89 746.38 876.7 733.02 883.71 719.66 890.49 706.29 896.59 692.93 901.61 679.57 905.24 666.21 907.24 652.84 907.47 639.48 905.93 626.12 902.72 612.76 898.03 599.39 892.18 586.03 885.54 572.67 878.54 559.31 871.64 545.94 865.28 532.58 859.87 519.22 855.75 505.86 853.21 492.49 852.4 479.13 853.37 465.77 856.06 452.41 860.3 439.05 865.81 425.68 872.24 412.32 879.17 398.96 886.15 385.6 892.74 372.23 898.5 358.87 903.06 345.51 906.14 332.15 907.52 318.78 907.13 305.42 904.98 292.06 901.22 278.7 896.09 265.33 889.91 251.97 883.09 238.61 876.08 225.25 869.32 211.88 863.24 198.52 858.25 185.16 854.67 171.8 852.72 158.44 852.54 145.07 854.13 131.71 857.39 118.35 862.11 104.99 867.99 91.62 874.64 78.26 881.64 64.9 888.54 51.54 894.88 38.17 900.26 24.81 904.33 4.81 902.11 -1.71 887.19 -1.57 876.99 -1.41 866.79 -1.24 856.59 -1.05 846.39 -0.53 831.09 0.31 826 13.09 818.93 25.95 810.53 38.87 800.94 51.84 790.32 64.85 778.94 77.89 767.06 90.93 755 103.95 743.06 116.95 731.55 129.9 720.73 142.78 710.86 155.57 702.1 168.27 694.58 180.86 688.36 193.32 683.43 205.65 679.69 217.84 677 229.89 675.17 241.79 673.94 253.54 673.05 265.16 672.21 276.66 671.12 288.03 669.52 299.31 667.17 310.5 663.86 321.63 659.45 332.71 653.86 343.78 647.05 354.87 639.09 365.98 630.06 377.16 620.12 388.44 609.5 399.83 598.41 411.36 587.14 423.07 575.94 434.96 565.08 447.07 554.8 459.4 545.31 471.98 536.76 484.81 529.28 497.89 522.92 511.23 517.66 524.83 513.44 538.68 510.14 552.77 507.6 567.07 505.6 581.57 503.92 596.25 502.3 611.08 500.5 626.02 498.29 641.03 495.46 656.09 491.83 671.15 487.27 686.17 481.7 701.12 475.11 715.93 467.52 730.59 459.02 745.04 449.73 759.26 439.84 773.2 429.54 786.83 419.05 800.14 408.61 819.37 393.57 825.66 388.71" fill="url(#uuunion-grad3)" filter="url(#uuunion-blur2)"></path></svg>